<?xml version="1.0" encoding="UTF-8" standalone="no"?>
<!DOCTYPE svg PUBLIC "-//W3C//DTD SVG 1.1//EN" "http://www.w3.org/Graphics/SVG/1.1/DTD/svg11.dtd">
<!-- Generated by Microsoft Visio, SVG Export sabc-sports-app.svg Page-1 -->
<svg xmlns="http://www.w3.org/2000/svg" xmlns:xlink="http://www.w3.org/1999/xlink" xmlns:ev="http://www.w3.org/2001/xml-events"
		xmlns:v="http://schemas.microsoft.com/visio/2003/SVGExtensions/" width="34.0787in" height="8.26772in"
		viewBox="0 0 2453.67 595.276" xml:space="preserve" color-interpolation-filters="sRGB" class="st12">
	<v:documentProperties v:langID="1033" v:metric="true" v:viewMarkup="false">
		<v:userDefs>
			<v:ud v:nameU="msvSubprocessMaster" v:prompt="" v:val="VT4(Rectangle)"/>
			<v:ud v:nameU="msvNoAutoConnect" v:val="VT0(1):26"/>
		</v:userDefs>
	</v:documentProperties>

	<style type="text/css">
	<![CDATA[
		.st1 {fill:none;stroke:none;stroke-width:0.25}
		.st2 {fill:#5b9bd5;font-family:Calibri;font-size:1.00001em}
		.st3 {fill:#ffffff;stroke:#ebeff5;stroke-width:0.75}
		.st4 {fill:#759fcc;font-family:Calibri;font-size:0.833336em;font-weight:bold}
		.st5 {fill:#ffffff;stroke:#e8ebef;stroke-width:0.75}
		.st6 {fill:#41719c;font-family:Calibri;font-size:0.833336em;font-weight:bold}
		.st7 {fill:#41719c;font-family:Calibri;font-size:0.833336em}
		.st8 {fill:#759fcc;font-family:Calibri;font-size:0.833336em}
		.st9 {font-size:1em}
		.st10 {marker-end:url(#mrkr4-39);stroke:#5b9bd5;stroke-linecap:round;stroke-linejoin:round;stroke-width:1}
		.st11 {fill:#5b9bd5;fill-opacity:1;stroke:#5b9bd5;stroke-opacity:1;stroke-width:0.28409090909091}
		.st12 {fill:none;fill-rule:evenodd;font-size:12px;overflow:visible;stroke-linecap:square;stroke-miterlimit:3}
	]]>
	</style>

	<defs id="Markers">
		<g id="lend4">
			<path d="M 2 1 L 0 0 L 2 -1 L 2 1 " style="stroke:none"/>
		</g>
		<marker id="mrkr4-39" class="st11" v:arrowType="4" v:arrowSize="2" v:setback="7.04" refX="-7.04" orient="auto"
				markerUnits="strokeWidth" overflow="visible">
			<use xlink:href="#lend4" transform="scale(-3.52,-3.52) "/>
		</marker>
	</defs>
	<g v:mID="0" v:index="1" v:groupContext="foregroundPage">
		<v:userDefs>
			<v:ud v:nameU="msvThemeOrder" v:val="VT0(0):26"/>
		</v:userDefs>
		<title>Page-1</title>
		<v:pageProperties v:drawingScale="0.0393701" v:pageScale="0.0393701" v:drawingUnits="24" v:shadowOffsetX="8.50394"
				v:shadowOffsetY="-8.50394"/>
		<v:layer v:name="Connector" v:index="0"/>
		<g id="shape1-1" v:mID="1" v:groupContext="shape" transform="translate(1160.22,-538.583)">
			<title>Sheet.1</title>
			<desc>Sport and Recreation</desc>
			<v:textBlock v:margins="rect(4,4,4,4)" v:tabSpace="42.5197"/>
			<v:textRect cx="63.7795" cy="581.102" width="127.56" height="28.3465"/>
			<rect x="0" y="566.929" width="127.559" height="28.3465" class="st1"/>
			<text x="12.28" y="584.7" class="st2" v:langID="7177"><v:paragraph v:horizAlign="1"/><v:tabList/>Sport and Recreation</text>		</g>
		<g id="shape3-4" v:mID="3" v:groupContext="shape" transform="translate(1167.31,-481.89)">
			<title>Rectangle</title>
			<desc>SABC Sports App</desc>
			<v:userDefs>
				<v:ud v:nameU="visVersion" v:val="VT0(15):26"/>
			</v:userDefs>
			<v:textBlock v:margins="rect(4,4,4,4)" v:tabSpace="42.5197"/>
			<v:textRect cx="56.6929" cy="581.102" width="113.39" height="28.3465"/>
			<rect x="0" y="566.929" width="113.386" height="28.3465" class="st3"/>
			<text x="21.95" y="584.1" class="st4" v:langID="7177"><v:paragraph v:horizAlign="1"/><v:tabList/>SABC Sports App</text>		</g>
		<g id="shape4-7" v:mID="4" v:groupContext="shape" transform="translate(387.78,-301.181)">
			<title>Rectangle.4</title>
			<desc>CSA</desc>
			<v:userDefs>
				<v:ud v:nameU="visVersion" v:val="VT0(15):26"/>
			</v:userDefs>
			<v:textBlock v:margins="rect(4,4,4,4)" v:tabSpace="42.5197"/>
			<v:textRect cx="35.4331" cy="574.016" width="70.87" height="42.5197"/>
			<rect x="0" y="552.756" width="70.8661" height="42.5197" class="st5"/>
			<text x="27.39" y="577.02" class="st6" v:langID="7177"><v:paragraph v:horizAlign="1"/><v:tabList/>CSA</text>		</g>
		<g id="shape5-10" v:mID="5" v:groupContext="shape" transform="translate(1188.57,-301.181)">
			<title>Rectangle.5</title>
			<desc>SARU</desc>
			<v:userDefs>
				<v:ud v:nameU="visVersion" v:val="VT0(15):26"/>
			</v:userDefs>
			<v:textBlock v:margins="rect(4,4,4,4)" v:tabSpace="42.5197"/>
			<v:textRect cx="35.4331" cy="574.016" width="70.87" height="42.5197"/>
			<rect x="0" y="552.756" width="70.8661" height="42.5197" class="st5"/>
			<text x="24.32" y="577.02" class="st7" v:langID="7177"><v:paragraph v:horizAlign="1"/><v:tabList/>SARU</text>		</g>
		<g id="shape6-13" v:mID="6" v:groupContext="shape" transform="translate(1989.35,-301.181)">
			<title>Rectangle.6</title>
			<desc>SAFA</desc>
			<v:userDefs>
				<v:ud v:nameU="visVersion" v:val="VT0(15):26"/>
			</v:userDefs>
			<v:textBlock v:margins="rect(4,4,4,4)" v:tabSpace="42.5197"/>
			<v:textRect cx="35.4331" cy="574.016" width="70.87" height="42.5197"/>
			<rect x="0" y="552.756" width="70.8661" height="42.5197" class="st5"/>
			<text x="25.05" y="577.02" class="st7" v:langID="7177"><v:paragraph v:horizAlign="1"/><v:tabList/>SAFA</text>		</g>
		<g id="shape9-16" v:mID="9" v:groupContext="shape" transform="translate(281.48,-206.929)">
			<title>Ellipse</title>
			<desc>Provincial Cricket</desc>
			<v:userDefs>
				<v:ud v:nameU="visVersion" v:val="VT0(15):26"/>
			</v:userDefs>
			<v:textBlock v:margins="rect(4,4,4,4)" v:tabSpace="42.5197"/>
			<v:textRect cx="35.4331" cy="574.016" width="62.01" height="37.2047"/>
			<path d="M0 574.02 A35.4331 21.2598 0 0 1 70.87 574.02 A35.4331 21.2598 0 0 1 0 574.02 Z" class="st3"/>
			<text x="15.63" y="571.02" class="st8" v:langID="7177"><v:paragraph v:horizAlign="1"/><v:tabList/>Provincial  <tspan
						x="21.33" dy="1.2em" class="st9">Cricket</tspan></text>		</g>
		<g id="shape10-20" v:mID="10" v:groupContext="shape" transform="translate(175.181,-206.929)">
			<title>Ellipse.10</title>
			<desc>Proteas</desc>
			<v:userDefs>
				<v:ud v:nameU="visVersion" v:val="VT0(15):26"/>
			</v:userDefs>
			<v:textBlock v:margins="rect(4,4,4,4)" v:tabSpace="42.5197"/>
			<v:textRect cx="35.4331" cy="574.016" width="62.01" height="37.2047"/>
			<path d="M0 574.02 A35.4331 21.2598 0 0 1 70.87 574.02 A35.4331 21.2598 0 0 1 0 574.02 Z" class="st3"/>
			<text x="19.96" y="577.02" class="st8" v:langID="7177"><v:paragraph v:horizAlign="1"/><v:tabList/>Proteas</text>		</g>
		<g id="shape11-23" v:mID="11" v:groupContext="shape" transform="translate(387.78,-206.929)">
			<title>Ellipse.11</title>
			<desc>Club Cricket</desc>
			<v:userDefs>
				<v:ud v:nameU="visVersion" v:val="VT0(15):26"/>
			</v:userDefs>
			<v:textBlock v:margins="rect(4,4,4,4)" v:tabSpace="42.5197"/>
			<v:textRect cx="35.4331" cy="574.016" width="62.01" height="37.2047"/>
			<path d="M0 574.02 A35.4331 21.2598 0 0 1 70.87 574.02 A35.4331 21.2598 0 0 1 0 574.02 Z" class="st3"/>
			<text x="26.37" y="571.02" class="st8" v:langID="7177"><v:paragraph v:horizAlign="1"/><v:tabList/>Club<v:newlineChar/><tspan
						x="21.33" dy="1.2em" class="st9">Cricket</tspan></text>		</g>
		<g id="shape12-27" v:mID="12" v:groupContext="shape" transform="translate(494.079,-206.929)">
			<title>Ellipse.12</title>
			<desc>USSA</desc>
			<v:userDefs>
				<v:ud v:nameU="visVersion" v:val="VT0(15):26"/>
			</v:userDefs>
			<v:textBlock v:margins="rect(4,4,4,4)" v:tabSpace="42.5197"/>
			<v:textRect cx="35.4331" cy="574.016" width="62.01" height="37.2047"/>
			<path d="M0 574.02 A35.4331 21.2598 0 0 1 70.87 574.02 A35.4331 21.2598 0 0 1 0 574.02 Z" class="st3"/>
			<text x="24.74" y="577.02" class="st8" v:langID="7177"><v:paragraph v:horizAlign="1"/><v:tabList/>USSA</text>		</g>
		<g id="shape13-30" v:mID="13" v:groupContext="shape" transform="translate(600.378,-206.929)">
			<title>Ellipse.13</title>
			<desc>Schools Cricket</desc>
			<v:userDefs>
				<v:ud v:nameU="visVersion" v:val="VT0(15):26"/>
			</v:userDefs>
			<v:textBlock v:margins="rect(4,4,4,4)" v:tabSpace="42.5197"/>
			<v:textRect cx="35.4331" cy="574.016" width="62.01" height="37.2047"/>
			<path d="M0 574.02 A35.4331 21.2598 0 0 1 70.87 574.02 A35.4331 21.2598 0 0 1 0 574.02 Z" class="st3"/>
			<text x="20.02" y="571.02" class="st8" v:langID="7177"><v:paragraph v:horizAlign="1"/><v:tabList/>Schools<v:lf/><tspan
						x="21.33" dy="1.2em" class="st9">Cricket</tspan></text>		</g>
		<g id="shape24-34" v:mID="24" v:groupContext="shape" v:layerMember="0" transform="translate(1167.31,-496.063)">
			<title>Dynamic connector</title>
			<path d="M0 595.28 L-744.09 595.28 L-744.09 740.6" class="st10"/>
		</g>
		<g id="shape25-40" v:mID="25" v:groupContext="shape" v:layerMember="0" transform="translate(1216.91,-481.89)">
			<title>Dynamic connector.25</title>
			<path d="M7.09 595.28 L7.09 726.42" class="st10"/>
		</g>
		<g id="shape26-45" v:mID="26" v:groupContext="shape" v:layerMember="0" transform="translate(1280.69,-496.063)">
			<title>Dynamic connector.26</title>
			<path d="M0 595.28 L744.09 595.28 L744.09 740.6" class="st10"/>
		</g>
		<g id="shape28-50" v:mID="28" v:groupContext="shape" v:layerMember="0" transform="translate(387.78,-322.441)">
			<title>Dynamic connector.28</title>
			<path d="M0 595.28 L-177.17 595.28 L-177.17 661.23" class="st10"/>
		</g>
		<g id="shape29-55" v:mID="29" v:groupContext="shape" v:layerMember="0" transform="translate(423.213,-301.181)">
			<title>Dynamic connector.29</title>
			<path d="M0 595.28 L0 605.91 L-106.3 605.91 L-106.3 639.97" class="st10"/>
		</g>
		<g id="shape30-60" v:mID="30" v:groupContext="shape" v:layerMember="0" transform="translate(416.126,-301.181)">
			<title>Dynamic connector.30</title>
			<path d="M7.09 595.28 L7.09 639.97" class="st10"/>
		</g>
		<g id="shape31-65" v:mID="31" v:groupContext="shape" v:layerMember="0" transform="translate(423.213,-301.181)">
			<title>Dynamic connector.31</title>
			<path d="M0 595.28 L0 605.91 L106.3 605.91 L106.3 639.97" class="st10"/>
		</g>
		<g id="shape32-70" v:mID="32" v:groupContext="shape" v:layerMember="0" transform="translate(458.646,-322.441)">
			<title>Dynamic connector.32</title>
			<path d="M0 595.28 L177.17 595.28 L177.17 661.23" class="st10"/>
		</g>
		<g id="shape33-75" v:mID="33" v:groupContext="shape" transform="translate(1061.01,-187.795)">
			<title>Ellipse.33</title>
			<desc>Franchise Rugby</desc>
			<v:userDefs>
				<v:ud v:nameU="visVersion" v:val="VT0(15):26"/>
			</v:userDefs>
			<v:textBlock v:margins="rect(4,4,4,4)" v:tabSpace="42.5197"/>
			<v:textRect cx="35.4331" cy="574.016" width="62.01" height="37.2047"/>
			<path d="M0 574.02 A35.4331 21.2598 0 0 1 70.87 574.02 A35.4331 21.2598 0 0 1 0 574.02 Z" class="st3"/>
			<text x="16.04" y="571.02" class="st8" v:langID="7177"><v:paragraph v:horizAlign="1"/><v:tabList/>Franchise <tspan
						x="22.85" dy="1.2em" class="st9">Rugby</tspan></text>		</g>
		<g id="shape34-79" v:mID="34" v:groupContext="shape" transform="translate(968.882,-187.795)">
			<title>Ellipse.34</title>
			<desc>Springboks</desc>
			<v:userDefs>
				<v:ud v:nameU="visVersion" v:val="VT0(15):26"/>
			</v:userDefs>
			<v:textBlock v:margins="rect(4,4,4,4)" v:tabSpace="42.5197"/>
			<v:textRect cx="35.4331" cy="574.016" width="62.01" height="37.2047"/>
			<path d="M0 574.02 A35.4331 21.2598 0 0 1 70.87 574.02 A35.4331 21.2598 0 0 1 0 574.02 Z" class="st3"/>
			<text x="13.15" y="577.02" class="st8" v:langID="7177"><v:paragraph v:horizAlign="1"/><v:tabList/>Springboks</text>		</g>
		<g id="shape35-82" v:mID="35" v:groupContext="shape" transform="translate(1245.26,-187.795)">
			<title>Ellipse.35</title>
			<desc>Club Rugby</desc>
			<v:userDefs>
				<v:ud v:nameU="visVersion" v:val="VT0(15):26"/>
			</v:userDefs>
			<v:textBlock v:margins="rect(4,4,4,4)" v:tabSpace="42.5197"/>
			<v:textRect cx="35.4331" cy="574.016" width="62.01" height="37.2047"/>
			<path d="M0 574.02 A35.4331 21.2598 0 0 1 70.87 574.02 A35.4331 21.2598 0 0 1 0 574.02 Z" class="st3"/>
			<text x="26.37" y="571.02" class="st8" v:langID="7177"><v:paragraph v:horizAlign="1"/><v:tabList/>Club<v:newlineChar/><tspan
						x="22.85" dy="1.2em" class="st9">Rugby</tspan></text>		</g>
		<g id="shape36-86" v:mID="36" v:groupContext="shape" transform="translate(1337.39,-187.795)">
			<title>Ellipse.36</title>
			<desc>USSA</desc>
			<v:userDefs>
				<v:ud v:nameU="visVersion" v:val="VT0(15):26"/>
			</v:userDefs>
			<v:textBlock v:margins="rect(4,4,4,4)" v:tabSpace="42.5197"/>
			<v:textRect cx="35.4331" cy="574.016" width="62.01" height="37.2047"/>
			<path d="M0 574.02 A35.4331 21.2598 0 0 1 70.87 574.02 A35.4331 21.2598 0 0 1 0 574.02 Z" class="st3"/>
			<text x="24.74" y="577.02" class="st8" v:langID="7177"><v:paragraph v:horizAlign="1"/><v:tabList/>USSA</text>		</g>
		<g id="shape37-89" v:mID="37" v:groupContext="shape" transform="translate(1415.34,-184.252)">
			<title>Ellipse.37</title>
			<desc>Schools Rugby</desc>
			<v:userDefs>
				<v:ud v:nameU="visVersion" v:val="VT0(15):26"/>
			</v:userDefs>
			<v:textBlock v:margins="rect(4,4,4,4)" v:tabSpace="42.5197"/>
			<v:textRect cx="35.4331" cy="574.016" width="62.01" height="37.2047"/>
			<path d="M0 574.02 A35.4331 21.2598 0 0 1 70.87 574.02 A35.4331 21.2598 0 0 1 0 574.02 Z" class="st3"/>
			<text x="20.02" y="571.02" class="st8" v:langID="7177"><v:paragraph v:horizAlign="1"/><v:tabList/>Schools<v:lf/><tspan
						x="22.85" dy="1.2em" class="st9">Rugby</tspan></text>		</g>
		<g id="shape38-93" v:mID="38" v:groupContext="shape" v:layerMember="0" transform="translate(1188.57,-322.441)">
			<title>Dynamic connector.38</title>
			<path d="M0 595.28 L-184.25 595.28 L-184.25 680.36" class="st10"/>
		</g>
		<g id="shape39-98" v:mID="39" v:groupContext="shape" v:layerMember="0" transform="translate(1188.57,-322.441)">
			<title>Dynamic connector.39</title>
			<path d="M0 595.28 L-92.13 595.28 L-92.13 680.36" class="st10"/>
		</g>
		<g id="shape40-103" v:mID="40" v:groupContext="shape" v:layerMember="0" transform="translate(1259.43,-322.441)">
			<title>Dynamic connector.40</title>
			<path d="M0 595.28 L21.26 595.28 L21.26 680.36" class="st10"/>
		</g>
		<g id="shape42-108" v:mID="42" v:groupContext="shape" v:layerMember="0" transform="translate(1259.43,-322.441)">
			<title>Dynamic connector.42</title>
			<path d="M0 595.28 L191.34 595.28 L191.34 683.9" class="st10"/>
		</g>
		<g id="shape43-113" v:mID="43" v:groupContext="shape" transform="translate(1883.06,-184.252)">
			<title>Ellipse.43</title>
			<desc>PSL</desc>
			<v:userDefs>
				<v:ud v:nameU="visVersion" v:val="VT0(15):26"/>
			</v:userDefs>
			<v:textBlock v:margins="rect(4,4,4,4)" v:tabSpace="42.5197"/>
			<v:textRect cx="35.4331" cy="574.016" width="62.01" height="37.2047"/>
			<path d="M0 574.02 A35.4331 21.2598 0 0 1 70.87 574.02 A35.4331 21.2598 0 0 1 0 574.02 Z" class="st3"/>
			<text x="28.45" y="577.02" class="st8" v:langID="7177"><v:paragraph v:horizAlign="1"/><v:tabList/>PSL</text>		</g>
		<g id="shape44-116" v:mID="44" v:groupContext="shape" transform="translate(1755.5,-184.252)">
			<title>Ellipse.44</title>
			<desc>Bafana Bafana</desc>
			<v:userDefs>
				<v:ud v:nameU="visVersion" v:val="VT0(15):26"/>
			</v:userDefs>
			<v:textBlock v:margins="rect(4,4,4,4)" v:tabSpace="42.5197"/>
			<v:textRect cx="46.063" cy="574.016" width="80.62" height="37.2047"/>
			<path d="M0 574.02 A46.063 21.2598 0 0 1 92.13 574.02 A46.063 21.2598 0 1 1 0 574.02 Z" class="st3"/>
			<text x="16.82" y="577.02" class="st8" v:langID="7177"><v:paragraph v:horizAlign="1"/><v:tabList/>Bafana Bafana</text>		</g>
		<g id="shape45-119" v:mID="45" v:groupContext="shape" transform="translate(1989.35,-184.252)">
			<title>Ellipse.45</title>
			<desc>Club Football</desc>
			<v:userDefs>
				<v:ud v:nameU="visVersion" v:val="VT0(15):26"/>
			</v:userDefs>
			<v:textBlock v:margins="rect(4,4,4,4)" v:tabSpace="42.5197"/>
			<v:textRect cx="35.4331" cy="574.016" width="62.01" height="37.2047"/>
			<path d="M0 574.02 A35.4331 21.2598 0 0 1 70.87 574.02 A35.4331 21.2598 0 0 1 0 574.02 Z" class="st3"/>
			<text x="26.37" y="571.02" class="st8" v:langID="7177"><v:paragraph v:horizAlign="1"/><v:tabList/>Club<v:newlineChar/><tspan
						x="18.87" dy="1.2em" class="st9">Football</tspan></text>		</g>
		<g id="shape46-123" v:mID="46" v:groupContext="shape" transform="translate(2095.65,-184.252)">
			<title>Ellipse.46</title>
			<desc>USSA</desc>
			<v:userDefs>
				<v:ud v:nameU="visVersion" v:val="VT0(15):26"/>
			</v:userDefs>
			<v:textBlock v:margins="rect(4,4,4,4)" v:tabSpace="42.5197"/>
			<v:textRect cx="35.4331" cy="574.016" width="62.01" height="37.2047"/>
			<path d="M0 574.02 A35.4331 21.2598 0 0 1 70.87 574.02 A35.4331 21.2598 0 0 1 0 574.02 Z" class="st3"/>
			<text x="24.74" y="577.02" class="st8" v:langID="7177"><v:paragraph v:horizAlign="1"/><v:tabList/>USSA</text>		</g>
		<g id="shape47-126" v:mID="47" v:groupContext="shape" transform="translate(2201.95,-184.252)">
			<title>Ellipse.47</title>
			<desc>School Football</desc>
			<v:userDefs>
				<v:ud v:nameU="visVersion" v:val="VT0(15):26"/>
			</v:userDefs>
			<v:textBlock v:margins="rect(4,4,4,4)" v:tabSpace="42.5197"/>
			<v:textRect cx="46.063" cy="574.016" width="80.62" height="37.2047"/>
			<path d="M0 574.02 A46.063 21.2598 0 0 1 92.13 574.02 A46.063 21.2598 0 1 1 0 574.02 Z" class="st3"/>
			<text x="14.91" y="577.02" class="st8" v:langID="7177"><v:paragraph v:horizAlign="1"/><v:tabList/>School Football</text>		</g>
		<g id="shape48-129" v:mID="48" v:groupContext="shape" v:layerMember="0" transform="translate(1989.35,-322.441)">
			<title>Dynamic connector.48</title>
			<path d="M0 595.28 L-187.8 595.28 L-187.8 683.9" class="st10"/>
		</g>
		<g id="shape49-134" v:mID="49" v:groupContext="shape" v:layerMember="0" transform="translate(2024.79,-262.205)">
			<title>Dynamic connector.49</title>
			<path d="M0 595.28 L-106.3 595.28 L-106.3 623.67" class="st10"/>
		</g>
		<g id="shape50-139" v:mID="50" v:groupContext="shape" v:layerMember="0" transform="translate(2017.7,-301.181)">
			<title>Dynamic connector.50</title>
			<path d="M7.09 595.28 L7.09 662.65" class="st10"/>
		</g>
		<g id="shape51-144" v:mID="51" v:groupContext="shape" v:layerMember="0" transform="translate(2024.79,-262.205)">
			<title>Dynamic connector.51</title>
			<path d="M0 595.28 L106.3 595.28 L106.3 623.67" class="st10"/>
		</g>
		<g id="shape52-149" v:mID="52" v:groupContext="shape" v:layerMember="0" transform="translate(2060.22,-322.441)">
			<title>Dynamic connector.52</title>
			<path d="M0 595.28 L187.8 595.28 L187.8 683.9" class="st10"/>
		</g>
		<g id="shape54-154" v:mID="54" v:groupContext="shape" transform="translate(1155.97,-187.795)">
			<title>Ellipse.54</title>
			<desc>Provincial Rugby</desc>
			<v:userDefs>
				<v:ud v:nameU="visVersion" v:val="VT0(15):26"/>
			</v:userDefs>
			<v:textBlock v:margins="rect(4,4,4,4)" v:tabSpace="42.5197"/>
			<v:textRect cx="35.4331" cy="574.016" width="62.01" height="37.2047"/>
			<path d="M0 574.02 A35.4331 21.2598 0 0 1 70.87 574.02 A35.4331 21.2598 0 0 1 0 574.02 Z" class="st3"/>
			<text x="15.63" y="571.02" class="st8" v:langID="7177"><v:paragraph v:horizAlign="1"/><v:tabList/>Provincial <tspan
						x="22.85" dy="1.2em" class="st9">Rugby</tspan></text>		</g>
		<g id="shape65-158" v:mID="65" v:groupContext="shape" v:layerMember="0" transform="translate(1182.9,-322.441)">
			<title>Dynamic connector.65</title>
			<path d="M5.67 595.28 L-1.42 595.28 L-1.42 623.62 L8.5 623.62 L8.5 680.36" class="st10"/>
		</g>
		<g id="shape67-163" v:mID="67" v:groupContext="shape" v:layerMember="0" transform="translate(1259.43,-322.441)">
			<title>Dynamic connector.67</title>
			<path d="M0 595.28 L113.39 595.28 L113.39 680.36" class="st10"/>
		</g>
		<g id="shape68-168" v:mID="68" v:groupContext="shape" transform="translate(1805.1,-99.2126)">
			<title>Ellipse.68</title>
			<desc>2D</desc>
			<v:userDefs>
				<v:ud v:nameU="visVersion" v:val="VT0(15):26"/>
			</v:userDefs>
			<v:textBlock v:margins="rect(4,4,4,4)" v:tabSpace="42.5197"/>
			<v:textRect cx="35.4331" cy="574.016" width="62.01" height="37.2047"/>
			<path d="M0 574.02 A35.4331 21.2598 0 0 1 70.87 574.02 A35.4331 21.2598 0 0 1 0 574.02 Z" class="st3"/>
			<text x="29.82" y="577.02" class="st8" v:langID="7177"><v:paragraph v:horizAlign="1"/><v:tabList/>2D</text>		</g>
		<g id="shape69-171" v:mID="69" v:groupContext="shape" transform="translate(1961.01,-99.2126)">
			<title>Ellipse.69</title>
			<desc>4d</desc>
			<v:userDefs>
				<v:ud v:nameU="visVersion" v:val="VT0(15):26"/>
			</v:userDefs>
			<v:textBlock v:margins="rect(4,4,4,4)" v:tabSpace="42.5197"/>
			<v:textRect cx="35.4331" cy="574.016" width="62.01" height="37.2047"/>
			<path d="M0 574.02 A35.4331 21.2598 0 0 1 70.87 574.02 A35.4331 21.2598 0 0 1 0 574.02 Z" class="st3"/>
			<text x="30.27" y="577.02" class="st8" v:langID="7177"><v:paragraph v:horizAlign="1"/><v:tabList/>4d</text>		</g>
		<g id="shape70-174" v:mID="70" v:groupContext="shape" transform="translate(1883.06,-99.2126)">
			<title>Ellipse.70</title>
			<desc>3D</desc>
			<v:userDefs>
				<v:ud v:nameU="visVersion" v:val="VT0(15):26"/>
			</v:userDefs>
			<v:textBlock v:margins="rect(4,4,4,4)" v:tabSpace="42.5197"/>
			<v:textRect cx="35.4331" cy="574.016" width="62.01" height="37.2047"/>
			<path d="M0 574.02 A35.4331 21.2598 0 0 1 70.87 574.02 A35.4331 21.2598 0 0 1 0 574.02 Z" class="st3"/>
			<text x="29.82" y="577.02" class="st8" v:langID="7177"><v:paragraph v:horizAlign="1"/><v:tabList/>3D</text>		</g>
		<g id="shape72-177" v:mID="72" v:groupContext="shape" v:layerMember="0" transform="translate(2031.87,-126.85)">
			<title>Dynamic connector.72</title>
			<path d="M0 601.65 L57.23 602.92" class="st10"/>
		</g>
		<g id="shape73-182" v:mID="73" v:groupContext="shape" v:layerMember="0" transform="translate(1883.06,-205.512)">
			<title>Dynamic connector.73</title>
			<path d="M0 595.28 L-28.35 595.28 L-28.35 623.62 L-42.52 623.62 L-42.52 652.02" class="st10"/>
		</g>
		<g id="shape74-187" v:mID="74" v:groupContext="shape" v:layerMember="0" transform="translate(1911.4,-184.252)">
			<title>Dynamic connector.74</title>
			<path d="M7.09 595.28 L7.09 630.76" class="st10"/>
		</g>
		<g id="shape75-192" v:mID="75" v:groupContext="shape" v:layerMember="0" transform="translate(1953.92,-205.512)">
			<title>Dynamic connector.75</title>
			<path d="M0 595.28 L28.35 595.28 L28.35 623.62 L42.52 623.62 L42.52 652.02" class="st10"/>
		</g>
	</g>
</svg>
